<?xml version="1.0" encoding="UTF-8"?>
<svg xmlns="http://www.w3.org/2000/svg" xmlns:xlink="http://www.w3.org/1999/xlink" width="48px" height="48px" viewBox="0 0 48 48" version="1.1">
<g id="surface1">
<path style=" stroke:none;fill-rule:nonzero;fill:rgb(54.901961%,78.431373%,29.411765%);fill-opacity:1;" d="M 21.839844 0.925781 C 23.144531 0.257812 24.84375 0.253906 26.148438 0.925781 C 32.707031 4.246094 39.269531 7.5625 45.832031 10.882812 C 47.0625 11.507812 47.886719 12.734375 47.875 14.007812 L 47.875 33.984375 C 47.886719 35.3125 46.980469 36.570312 45.675781 37.179688 C 39.140625 40.480469 32.601562 43.785156 26.066406 47.085938 C 24.734375 47.773438 23 47.71875 21.710938 46.980469 C 19.75 45.960938 17.785156 44.949219 15.824219 43.933594 C 15.425781 43.71875 14.972656 43.546875 14.6875 43.199219 C 14.941406 42.898438 15.386719 42.863281 15.75 42.730469 C 16.570312 42.496094 17.320312 42.121094 18.074219 41.757812 C 18.261719 41.644531 18.496094 41.6875 18.675781 41.792969 C 20.355469 42.652344 22.011719 43.539062 23.695312 44.390625 C 24.054688 44.578125 24.417969 44.332031 24.726562 44.175781 C 31.140625 40.929688 37.5625 37.691406 43.980469 34.445312 C 44.21875 34.339844 44.351562 34.113281 44.332031 33.882812 C 44.332031 27.292969 44.332031 20.699219 44.332031 14.109375 C 44.359375 13.847656 44.1875 13.605469 43.921875 13.496094 C 37.40625 10.207031 30.894531 6.917969 24.378906 3.628906 C 24.148438 3.488281 23.84375 3.488281 23.609375 3.628906 C 17.097656 6.917969 10.582031 10.210938 4.070312 13.496094 C 3.804688 13.605469 3.625 13.84375 3.65625 14.109375 C 3.65625 20.699219 3.65625 27.292969 3.65625 33.882812 C 3.632812 34.113281 3.773438 34.335938 4.011719 34.4375 C 5.75 35.320312 7.492188 36.199219 9.230469 37.078125 C 10.207031 37.550781 11.414062 37.828125 12.492188 37.46875 C 13.445312 37.164062 14.113281 36.292969 14.097656 35.382812 C 14.105469 28.835938 14.089844 22.28125 14.101562 15.730469 C 14.078125 15.441406 14.386719 15.199219 14.703125 15.226562 C 15.539062 15.222656 16.375 15.21875 17.210938 15.230469 C 17.558594 15.222656 17.796875 15.535156 17.753906 15.828125 C 17.75 22.421875 17.765625 29.015625 17.75 35.605469 C 17.75 37.363281 16.945312 39.277344 15.132812 40.136719 C 12.894531 41.175781 10.132812 40.953125 7.925781 39.957031 C 6.015625 39.105469 4.1875 38.09375 2.3125 37.179688 C 1.007812 36.574219 0.105469 35.3125 0.113281 33.984375 L 0.113281 14.007812 C 0.101562 12.710938 0.957031 11.457031 2.230469 10.84375 C 8.769531 7.539062 15.300781 4.230469 21.839844 0.925781 Z M 21.839844 0.925781 "/>
<path style=" stroke:none;fill-rule:nonzero;fill:rgb(54.901961%,78.431373%,29.411765%);fill-opacity:1;" d="M 27.542969 14.765625 C 30.394531 14.601562 33.449219 14.664062 36.011719 15.925781 C 38 16.886719 39.101562 18.914062 39.132812 20.886719 C 39.082031 21.15625 38.769531 21.300781 38.484375 21.285156 C 37.65625 21.285156 36.828125 21.292969 36.003906 21.277344 C 35.648438 21.292969 35.449219 21 35.402344 20.722656 C 35.167969 19.777344 34.589844 18.839844 33.597656 18.386719 C 32.070312 17.699219 30.300781 17.734375 28.636719 17.75 C 27.421875 17.808594 26.117188 17.902344 25.089844 18.539062 C 24.300781 19.027344 24.058594 20.003906 24.339844 20.792969 C 24.605469 21.355469 25.335938 21.539062 25.929688 21.707031 C 29.367188 22.511719 33.007812 22.429688 36.378906 23.492188 C 37.773438 23.925781 39.140625 24.761719 39.617188 26.074219 C 40.242188 27.824219 39.96875 29.921875 38.574219 31.332031 C 37.445312 32.492188 35.796875 33.117188 34.160156 33.464844 C 31.976562 33.898438 29.707031 33.910156 27.492188 33.71875 C 25.40625 33.503906 23.238281 33.011719 21.625 31.742188 C 20.253906 30.667969 19.578125 29 19.644531 27.394531 C 19.664062 27.117188 19.964844 26.929688 20.253906 26.953125 C 21.089844 26.945312 21.921875 26.945312 22.753906 26.953125 C 23.085938 26.929688 23.332031 27.191406 23.351562 27.472656 C 23.503906 28.375 23.882812 29.320312 24.761719 29.851562 C 26.453125 30.832031 28.578125 30.765625 30.515625 30.789062 C 32.121094 30.726562 33.925781 30.710938 35.234375 29.757812 C 35.925781 29.214844 36.132812 28.308594 35.945312 27.527344 C 35.742188 26.867188 34.972656 26.5625 34.3125 26.359375 C 30.921875 25.398438 27.238281 25.75 23.878906 24.660156 C 22.515625 24.226562 21.195312 23.414062 20.671875 22.15625 C 19.941406 20.382812 20.277344 18.183594 21.816406 16.824219 C 23.316406 15.472656 25.484375 14.949219 27.542969 14.761719 Z M 27.542969 14.765625 "/>
</g>
</svg>
